<svg width="26" height="19" viewBox="0 0 26 19" fill="none" xmlns="http://www.w3.org/2000/svg">
<path d="M4.51943 0.038147H21.6713C22.7211 0.038147 23.7278 0.434312 24.4701 1.13949C25.2124 1.84467 25.6294 2.80109 25.6294 3.79837V15.079C25.6294 16.0763 25.2124 17.0327 24.4701 17.7379C23.7278 18.4431 22.7211 18.8392 21.6713 18.8392H4.51943C3.46967 18.8392 2.46291 18.4431 1.72062 17.7379C0.978325 17.0327 0.56131 16.0763 0.56131 15.079V3.79837C0.56131 2.80109 0.978325 1.84467 1.72062 1.13949C2.46291 0.434312 3.46967 0.038147 4.51943 0.038147ZM4.51943 1.29155C3.85975 1.29155 3.27922 1.50463 2.83063 1.88065L13.0954 8.18529L23.3601 1.88065C22.9115 1.50463 22.331 1.29155 21.6713 1.29155H4.51943ZM13.0954 9.70191L2.0522 2.89591C1.94665 3.17166 1.88068 3.48501 1.88068 3.79837V15.079C1.88068 15.7439 2.15869 16.3815 2.65356 16.8516C3.14842 17.3217 3.81959 17.5858 4.51943 17.5858H21.6713C22.3711 17.5858 23.0423 17.3217 23.5372 16.8516C24.032 16.3815 24.3101 15.7439 24.3101 15.079V3.79837C24.3101 3.48501 24.2441 3.17166 24.1385 2.89591L13.0954 9.70191Z" fill="#A4A4A4"/>
</svg>
