<svg width="19" height="21" viewBox="0 0 19 21" fill="none" xmlns="http://www.w3.org/2000/svg">
<path d="M18.7586 8.95799H18.0014V8.91652H9.54087V12.9135H14.8536C14.0785 15.2403 11.9958 16.9105 9.54087 16.9105C6.426 16.9105 3.90054 14.226 3.90054 10.915C3.90054 7.60401 6.426 4.91953 9.54087 4.91953C10.9787 4.91953 12.2868 5.49609 13.2828 6.43788L15.9417 3.61151C14.2628 1.94826 12.017 0.922531 9.54087 0.922531C4.34942 0.922531 0.140324 5.39667 0.140324 10.915C0.140324 16.4334 4.34942 20.9075 9.54087 20.9075C14.7323 20.9075 18.9414 16.4334 18.9414 10.915C18.9414 10.245 18.8766 9.59101 18.7586 8.95799Z" fill="#FFC107"/>
<path d="M9.5409 20.9075C11.9691 20.9075 14.1754 19.9197 15.8435 18.3134L12.934 15.6964C11.9585 16.485 10.7665 16.9115 9.5409 16.9105C7.09582 16.9105 5.01971 15.2532 4.23758 12.9404L1.17206 15.4511C2.72785 18.6871 5.88738 20.9075 9.5409 20.9075Z" fill="#4CAF50"/>
<path d="M18.7586 8.95803H18.0013V8.91656H9.54085V12.9136H14.8536C14.4828 14.0209 13.815 14.9886 12.9326 15.697L12.934 15.696L15.8434 18.313C15.6376 18.5118 18.9414 15.9113 18.9414 10.9151C18.9414 10.2451 18.8765 9.59106 18.7586 8.95803Z" fill="#1976D2"/>
<path d="M1.22416 6.26402L4.3127 8.67171C5.14841 6.47236 7.17235 4.91953 9.54082 4.91953C10.9786 4.91953 12.2867 5.49609 13.2827 6.43788L15.9416 3.61151C14.2627 1.94826 12.0169 0.922531 9.54082 0.922531C5.93007 0.922531 2.79875 3.0894 1.22416 6.26402Z" fill="#FF3D00"/>
</svg>
